# xmcd
#
# Track frame offsets: 
#        150
#        20562
#        39180
#        55195
#        76205
#        94640
#        125502
#        147420
#        167555
#        185362
#        203012
#        226315
#        252022
#
# Disc length: 3555 seconds
#
# Revision: 6
# Processed by: cddbd v1.5.1PL2 Copyright (c) Steve Scherf et al.
# Submitted via: ExactAudioCopy v0.95b4
#
DISCID=9e0de10d
DTITLE=Zachary Richard - Cap Enragé
DYEAR=1996
DGENRE=Zydeco
TTITLE0=Cap Enragé
TTITLE1=Marjolaine
TTITLE2=Petit Codiac
TTITLE3=Au bord de Lac Bijou
TTITLE4=J'peux pas M'empêcher
TTITLE5=Dans le Nord Canadien
TTITLE6=La ballade de Jean Batailleur
TTITLE7=Aux Natchitoches
TTITLE8=Johnny Danser
TTITLE9=Au paradis avec toi
TTITLE10=Au ranch à Willy
TTITLE11=Pleine lune en décembre
TTITLE12=Travailler c'est trop dûr
EXTD=YEAR: 1996
EXTT0=
EXTT1=
EXTT2=
EXTT3=
EXTT4=
EXTT5=
EXTT6=
EXTT7=
EXTT8=
EXTT9=
EXTT10=
EXTT11=
EXTT12=
PLAYORDER=
